<?xml version="1.0" encoding="UTF-8" standalone="no"?>
<svg
   xmlns:dc="http://purl.org/dc/elements/1.1/"
   xmlns:cc="http://creativecommons.org/ns#"
   xmlns:rdf="http://www.w3.org/1999/02/22-rdf-syntax-ns#"
   xmlns:svg="http://www.w3.org/2000/svg"
   xmlns="http://www.w3.org/2000/svg"
   xmlns:sodipodi="http://sodipodi.sourceforge.net/DTD/sodipodi-0.dtd"
   xmlns:inkscape="http://www.inkscape.org/namespaces/inkscape"
   width="128px"
   height="128px"
   viewBox="0 0 128 128"
   aria-hidden="true"
   role="img"
   class="iconify iconify--noto"
   preserveAspectRatio="xMidYMid meet"
   version="1.1"
   id="svg12"
   sodipodi:docname="square.svg"
   inkscape:version="0.92.4 (5da689c313, 2019-01-14)">
  <metadata
     id="metadata18">
    <rdf:RDF>
      <cc:Work
         rdf:about="">
        <dc:format>image/svg+xml</dc:format>
        <dc:type
           rdf:resource="http://purl.org/dc/dcmitype/StillImage" />
      </cc:Work>
    </rdf:RDF>
  </metadata>
  <defs
     id="defs16" />
  <sodipodi:namedview
     pagecolor="#ffffff"
     bordercolor="#666666"
     borderopacity="1"
     objecttolerance="10"
     gridtolerance="10"
     guidetolerance="10"
     inkscape:pageopacity="0"
     inkscape:pageshadow="2"
     inkscape:window-width="1920"
     inkscape:window-height="1013"
     id="namedview14"
     showgrid="false"
     inkscape:zoom="1.84375"
     inkscape:cx="-7.8644068"
     inkscape:cy="64"
     inkscape:window-x="-9"
     inkscape:window-y="-9"
     inkscape:window-maximized="1"
     inkscape:current-layer="svg12" />
  <path
     d="M116 4H12c-4.42 0-8 3.58-8 8v104c0 4.42 3.58 8 8 8h104c4.42 0 8-3.58 8-8V12c0-4.42-3.58-8-8-8z"
     fill="#bdbdbd"
     id="path2" />
  <path
     d="M109.7 4H11.5A7.555 7.555 0 0 0 4 11.5v97.9c-.01 4.14 3.34 7.49 7.48 7.5H109.6c4.14.01 7.49-3.34 7.5-7.48V11.5c.09-4.05-3.13-7.41-7.18-7.5h-.22z"
     fill="#e0e0e0"
     id="path4"
     style="fill:#ffdea2;fill-opacity:1" />
  <path
     d="M28.1 24.7h73c1.6 0 2.9 1.3 2.9 2.9v73c0 1.6-1.3 2.9-2.9 2.9h-73c-1.6 0-2.9-1.3-2.9-2.9V27.7a2.863 2.863 0 0 1 2.72-3h.18z"
     fill="#575757"
     id="path6" />
  <path
     d="M28.1 24.7h67.4c1.6 0 2.9 1.3 2.9 2.9V95c0 1.6-1.3 2.9-2.9 2.9H28.1c-1.6 0-2.9-1.3-2.9-2.9V27.7a2.863 2.863 0 0 1 2.72-3h.18z"
     fill="#424242"
     id="path8" />
  <path
     d="M49 33.5c0-1.5-1-1.9-6.9-1.7c-4.9.2-7.3.8-8.8 2.6s-1.9 5.4-1.9 9.8c0 3.1 0 5.9 1.6 5.9c2.2 0 2.2-5 4-7.9c3.3-5.5 12-6.7 12-8.7z"
     fill="#787878"
     id="path10" />
</svg>
