<?xml version="1.0" encoding="UTF-8" standalone="no"?>
<svg
   xmlns:dc="http://purl.org/dc/elements/1.1/"
   xmlns:cc="http://creativecommons.org/ns#"
   xmlns:rdf="http://www.w3.org/1999/02/22-rdf-syntax-ns#"
   xmlns:svg="http://www.w3.org/2000/svg"
   xmlns="http://www.w3.org/2000/svg"
   xmlns:sodipodi="http://sodipodi.sourceforge.net/DTD/sodipodi-0.dtd"
   xmlns:inkscape="http://www.inkscape.org/namespaces/inkscape"
   width="32"
   height="32"
   viewBox="0 0 32 32"
   aria-hidden="true"
   role="img"
   class="iconify iconify--noto"
   preserveAspectRatio="xMidYMid meet"
   version="1.1"
   id="svg12"
   sodipodi:docname="square.svg"
   inkscape:version="0.92.4 (5da689c313, 2019-01-14)">
  <metadata
     id="metadata18">
    <rdf:RDF>
      <cc:Work
         rdf:about="">
        <dc:format>image/svg+xml</dc:format>
        <dc:type
           rdf:resource="http://purl.org/dc/dcmitype/StillImage" />
        <dc:title></dc:title>
      </cc:Work>
    </rdf:RDF>
  </metadata>
  <defs
     id="defs16" />
  <sodipodi:namedview
     pagecolor="#ffffff"
     bordercolor="#666666"
     borderopacity="1"
     objecttolerance="10"
     gridtolerance="10"
     guidetolerance="10"
     inkscape:pageopacity="0"
     inkscape:pageshadow="2"
     inkscape:window-width="1920"
     inkscape:window-height="1013"
     id="namedview14"
     showgrid="false"
     inkscape:zoom="14.75"
     inkscape:cx="19.560919"
     inkscape:cy="20.920493"
     inkscape:window-x="-9"
     inkscape:window-y="-9"
     inkscape:window-maximized="1"
     inkscape:current-layer="svg12" />
  <path
     d="M 27.228935,3.111836 H 5.6591932 c -0.916714,0 -1.6592109,0.742497 -1.6592109,1.659214 V 26.34079 C 3.9999823,27.2575 4.7424792,28 5.6591932,28 H 27.228935 c 0.916714,0 1.659211,-0.7425 1.659211,-1.65921 V 4.77105 c 0,-0.916717 -0.742497,-1.659214 -1.659211,-1.659214 z"
     id="path2"
     inkscape:connector-curvature="0"
     style="fill:#bdbdbd;stroke-width:0.99999994" />
  <path
     d="M 25.922306,3.111836 H 5.5554925 A 1.5669173,1.5669173 0 0 0 3.9999823,4.66735 v 20.30459 c -0.00207,0.85864 0.6927206,1.55344 1.5513622,1.55551 H 25.901566 c 0.858642,0.002 1.553436,-0.69272 1.55551,-1.55136 V 4.66735 C 27.475746,3.827371 26.80791,3.130503 25.967934,3.111836 Z"
     id="path4"
     style="fill:#ffdea2;fill-opacity:1;stroke-width:0.99999994"
     inkscape:connector-curvature="0" />
  <path
     d="M 8.9983551,7.40504 H 24.138654 c 0.331843,0 0.601464,0.26963 0.601464,0.60147 v 15.1403 c 0,0.33184 -0.269621,0.60146 -0.601464,0.60146 H 8.9983551 c -0.3318422,0 -0.6014639,-0.26962 -0.6014639,-0.60146 V 8.02725 A 0.59379009,0.59379009 0 0 1 8.9610229,7.40504 Z"
     id="path6"
     inkscape:connector-curvature="0"
     style="fill:#575757;stroke-width:0.99999994" />
  <path
     d="M 8.9983551,7.40504 H 22.977207 c 0.331842,0 0.601464,0.26963 0.601464,0.60147 v 13.97885 c 0,0.33184 -0.269622,0.60146 -0.601464,0.60146 H 8.9983551 c -0.3318422,0 -0.6014639,-0.26962 -0.6014639,-0.60146 V 8.02725 A 0.59379009,0.59379009 0 0 1 8.9610229,7.40504 Z"
     id="path8"
     inkscape:connector-curvature="0"
     style="fill:#424242;stroke-width:0.99999994" />
  <path
     d="m 13.333044,9.23018 c 0,-0.31111 -0.207402,-0.39407 -1.43107,-0.35259 -1.016267,0.0415 -1.51403,0.16593 -1.825132,0.53925 -0.3111019,0.37332 -0.3940624,1.11997 -0.3940624,2.03253 0,0.64295 0,1.22367 0.3318424,1.22367 0.456283,0 0.456283,-1.03701 0.829605,-1.63847 0.684425,-1.14071 2.488817,-1.38959 2.488817,-1.80439 z"
     id="path10"
     inkscape:connector-curvature="0"
     style="fill:#787878;stroke-width:0.99999994" />
</svg>
