<?xml version="1.0" encoding="UTF-8" standalone="no"?>
<!-- Created with Inkscape (http://www.inkscape.org/) -->

<svg
   xmlns:dc="http://purl.org/dc/elements/1.1/"
   xmlns:cc="http://creativecommons.org/ns#"
   xmlns:rdf="http://www.w3.org/1999/02/22-rdf-syntax-ns#"
   xmlns:svg="http://www.w3.org/2000/svg"
   xmlns="http://www.w3.org/2000/svg"
   xmlns:sodipodi="http://sodipodi.sourceforge.net/DTD/sodipodi-0.dtd"
   xmlns:inkscape="http://www.inkscape.org/namespaces/inkscape"
   width="120"
   height="120"
   viewBox="0 0 31.749999 31.749999"
   version="1.1"
   id="svg8"
   inkscape:version="0.92.4 (5da689c313, 2019-01-14)"
   sodipodi:docname="logo.svg"
   inkscape:export-filename="D:\programowanie\html\moje_strony\jack-style\tech\logo.png"
   inkscape:export-xdpi="1536"
   inkscape:export-ydpi="1536">
  <defs
     id="defs2" />
  <sodipodi:namedview
     id="base"
     pagecolor="#ffffff"
     bordercolor="#666666"
     borderopacity="1.0"
     inkscape:pageopacity="0.0"
     inkscape:pageshadow="2"
     inkscape:zoom="5.6"
     inkscape:cx="33.772212"
     inkscape:cy="57.098431"
     inkscape:document-units="mm"
     inkscape:current-layer="layer4"
     showgrid="false"
     units="px"
     inkscape:pagecheckerboard="true"
     inkscape:showpageshadow="false"
     inkscape:snap-grids="false"
     inkscape:snap-page="true"
     inkscape:snap-to-guides="false"
     inkscape:window-width="1920"
     inkscape:window-height="1013"
     inkscape:window-x="-9"
     inkscape:window-y="-9"
     inkscape:window-maximized="1"
     showguides="false"
     showborder="false">
    <inkscape:grid
       type="xygrid"
       id="grid841" />
  </sodipodi:namedview>
  <metadata
     id="metadata5">
    <rdf:RDF>
      <cc:Work
         rdf:about="">
        <dc:format>image/svg+xml</dc:format>
        <dc:type
           rdf:resource="http://purl.org/dc/dcmitype/StillImage" />
        <dc:title />
      </cc:Work>
    </rdf:RDF>
  </metadata>
  <g
     inkscape:label="tło"
     inkscape:groupmode="layer"
     id="layer1"
     transform="translate(0,-265.25)"
     style="display:none">
    <rect
       style="opacity:1;fill:#000000;fill-opacity:1;fill-rule:nonzero;stroke:none;stroke-width:0.10000003;stroke-linecap:round;stroke-linejoin:round;stroke-miterlimit:4;stroke-dasharray:none;stroke-dashoffset:0;stroke-opacity:1"
       id="rect11"
       width="31.749947"
       height="31.750004"
       x="0"
       y="265.24997" />
  </g>
  <g
     inkscape:groupmode="layer"
     id="layer5"
     inkscape:label="red" />
  <g
     inkscape:groupmode="layer"
     id="layer4"
     inkscape:label="J "
     transform="translate(0,27.516667)"
     style="display:inline">
    <g
       aria-label="J"
       style="font-style:normal;font-weight:normal;font-size:35.27777481px;line-height:1.25;font-family:sans-serif;letter-spacing:0.26458332px;word-spacing:0.26458332px;fill:#000000;fill-opacity:1;stroke:none;stroke-width:0.26458332"
       id="text833">
      <path
         d="M 2.9628736,-1.9817983 3.3504469,-4.005792 h 1.119656 q -0.1033529,0.8095975 0.1550293,1.188558 0.2583822,0.3789605 0.9129503,0.3789605 0.8354357,0 1.2919109,-0.6459554 0.4564751,-0.6373427 0.8009847,-2.4029542 L 9.844452,-16.881837 H 7.9754877 l 0.2067057,-1.042141 h 6.8471276 l -0.206706,1.042141 h -1.645033 l -2.230699,11.4635559 q -0.404799,2.0928955 -1.6536463,3.0575223 -1.2402344,0.9646267 -3.5398357,0.9646267 -0.7148573,0 -1.4038764,-0.1464165 -0.6976319,-0.1464166 -1.386651,-0.4392497 z"
         style="font-style:italic;font-variant:normal;font-weight:bold;font-stretch:normal;font-size:17.63888931px;font-family:'DejaVu Serif';-inkscape-font-specification:'DejaVu Serif, Bold Italic';font-variant-ligatures:normal;font-variant-caps:normal;font-variant-numeric:normal;font-feature-settings:normal;text-align:start;writing-mode:lr-tb;text-anchor:start;fill:#ffffff;stroke-width:0.26458332"
         id="path865" />
    </g>
  </g>
  <g
     inkscape:groupmode="layer"
     id="layer3"
     inkscape:label="S"
     transform="translate(0,27.516667)"
     style="display:inline">
    <g
       aria-label="S"
       style="font-style:normal;font-weight:normal;font-size:35.27777481px;line-height:1.25;font-family:sans-serif;letter-spacing:0.26458332px;word-spacing:0.26458332px;display:inline;fill:#000000;fill-opacity:1;stroke:none;stroke-width:0.26458332"
       id="text833-0">
      <path
         d="m 14.387219,-5.0630441 0.761711,-3.9239637 1.327223,0.011541 q -0.32315,1.9619818 0.565512,2.9083495 0.900203,0.9348266 3.104548,0.9348266 2.05431,0 3.289205,-0.8078748 1.246435,-0.819416 1.546503,-2.3774603 0.242362,-1.2464355 -0.288527,-1.9158173 -0.519348,-0.669382 -2.492871,-1.304141 l -2.135098,-0.680923 q -2.331296,-0.75017 -3.12763,-1.869653 -0.784792,-1.119484 -0.403937,-3.069925 0.42702,-2.192803 2.215885,-3.404615 1.800407,-1.211813 4.616428,-1.211813 1.200271,0 2.573659,0.265445 1.384928,0.253903 2.896808,0.750169 l -0.704005,3.67006 h -1.304141 q 0.150034,-1.823489 -0.715546,-2.631363 -0.854039,-0.819416 -2.942973,-0.819416 -1.823489,0 -2.919891,0.750169 -1.096401,0.738629 -1.373387,2.15818 -0.242362,1.234895 0.334691,1.9389 0.577054,0.704005 2.769857,1.396469 l 2.008146,0.634759 q 2.204344,0.704005 2.989137,1.800407 0.784793,1.08486 0.427019,2.9198905 -0.484724,2.5044121 -2.342837,3.7739297 -1.846571,1.2695177 -5.020365,1.2695177 -1.419551,0 -2.839103,-0.2885268 -1.40801,-0.2885267 -2.816021,-0.8771212 z"
         style="font-style:italic;font-variant:normal;font-weight:normal;font-stretch:normal;font-size:23.63611031px;font-family:'DejaVu Serif';-inkscape-font-specification:'DejaVu Serif, Italic';font-variant-ligatures:normal;font-variant-caps:normal;font-variant-numeric:normal;font-feature-settings:normal;text-align:start;writing-mode:lr-tb;text-anchor:start;fill:#ffffff;stroke-width:0.26458332"
         id="path862" />
    </g>
  </g>
</svg>
