<?xml version="1.0" encoding="UTF-8" standalone="no"?>
<svg
   xmlns:dc="http://purl.org/dc/elements/1.1/"
   xmlns:cc="http://creativecommons.org/ns#"
   xmlns:rdf="http://www.w3.org/1999/02/22-rdf-syntax-ns#"
   xmlns:svg="http://www.w3.org/2000/svg"
   xmlns="http://www.w3.org/2000/svg"
   xmlns:sodipodi="http://sodipodi.sourceforge.net/DTD/sodipodi-0.dtd"
   xmlns:inkscape="http://www.inkscape.org/namespaces/inkscape"
   width="24px"
   height="24px"
   viewBox="0 0 24 24"
   version="1.1"
   id="svg4"
   sodipodi:docname="codepen.svg"
   inkscape:version="0.92.4 (5da689c313, 2019-01-14)">
  <metadata
     id="metadata10">
    <rdf:RDF>
      <cc:Work
         rdf:about="">
        <dc:format>image/svg+xml</dc:format>
        <dc:type
           rdf:resource="http://purl.org/dc/dcmitype/StillImage" />
      </cc:Work>
    </rdf:RDF>
  </metadata>
  <defs
     id="defs8" />
  <sodipodi:namedview
     pagecolor="#ffffff"
     bordercolor="#666666"
     borderopacity="1"
     objecttolerance="10"
     gridtolerance="10"
     guidetolerance="10"
     inkscape:pageopacity="0"
     inkscape:pageshadow="2"
     inkscape:window-width="1920"
     inkscape:window-height="1013"
     id="namedview6"
     showgrid="false"
     inkscape:zoom="9.8333333"
     inkscape:cx="-1.4745763"
     inkscape:cy="12"
     inkscape:window-x="-9"
     inkscape:window-y="-9"
     inkscape:window-maximized="1"
     inkscape:current-layer="svg4" />
  <path
     d="m2.893 15.656 8.076 5.384v-4.808l-4.474-2.986zm-.831-1.928 2.585-1.728-2.585-1.728zm10.969 7.312 8.076-5.384-3.6-2.41-4.476 2.986zm-1.031-6.602 3.643-2.438-3.643-2.438-3.643 2.438zm-5.505-3.68 4.474-2.99v-4.808l-8.076 5.384zm12.858 1.242 2.585 1.728v-3.456zm-1.848-1.246 3.6-2.41-8.074-5.384v4.808zm6.495-2.41v7.312.03c0 .346-.18.651-.452.825l-.004.002-10.969 7.313c-.162.109-.361.174-.576.174s-.414-.065-.58-.176l.004.002-10.969-7.312c-.276-.176-.456-.481-.456-.827 0-.011 0-.021.001-.032v.002-7.312c0-.009 0-.02 0-.031 0-.346.18-.651.452-.825l.004-.002 10.969-7.312c.162-.109.361-.174.576-.174s.414.065.58.176l-.004-.002 10.969 7.312c.276.176.456.481.456.827 0 .011 0 .021-.001.032z"
     id="path2"
     style="fill:#f0f0f0;fill-opacity:0.75294119" />
</svg>
