<?xml version="1.0" encoding="UTF-8" standalone="no"?>
<svg
   xmlns:dc="http://purl.org/dc/elements/1.1/"
   xmlns:cc="http://creativecommons.org/ns#"
   xmlns:rdf="http://www.w3.org/1999/02/22-rdf-syntax-ns#"
   xmlns:svg="http://www.w3.org/2000/svg"
   xmlns="http://www.w3.org/2000/svg"
   xmlns:sodipodi="http://sodipodi.sourceforge.net/DTD/sodipodi-0.dtd"
   xmlns:inkscape="http://www.inkscape.org/namespaces/inkscape"
   width="32"
   height="32"
   viewBox="0 0 32 32"
   version="1.1"
   id="svg4"
   sodipodi:docname="codepen.svg"
   inkscape:version="0.92.4 (5da689c313, 2019-01-14)">
  <metadata
     id="metadata10">
    <rdf:RDF>
      <cc:Work
         rdf:about="">
        <dc:format>image/svg+xml</dc:format>
        <dc:type
           rdf:resource="http://purl.org/dc/dcmitype/StillImage" />
        <dc:title></dc:title>
      </cc:Work>
    </rdf:RDF>
  </metadata>
  <defs
     id="defs8" />
  <sodipodi:namedview
     pagecolor="#ffffff"
     bordercolor="#666666"
     borderopacity="1"
     objecttolerance="10"
     gridtolerance="10"
     guidetolerance="10"
     inkscape:pageopacity="0"
     inkscape:pageshadow="2"
     inkscape:window-width="1920"
     inkscape:window-height="1013"
     id="namedview6"
     showgrid="false"
     inkscape:zoom="9.8333333"
     inkscape:cx="-19.932203"
     inkscape:cy="12"
     inkscape:window-x="-9"
     inkscape:window-y="-9"
     inkscape:window-maximized="1"
     inkscape:current-layer="svg4"
     inkscape:snap-page="true" />
  <path
     d="M 3.858237,20.873882 14.626012,28.0524 V 21.641866 L 8.6608034,17.660616 Z M 2.7502601,18.303269 6.1968549,15.999317 2.7502601,13.695366 Z M 17.375288,28.0524 28.143064,20.873882 23.343163,17.660616 17.375288,21.641866 Z M 16.00065,19.249916 20.857883,15.999317 16.00065,12.748719 11.143419,15.999317 Z M 8.6608034,14.343351 14.626012,10.356768 V 3.9462352 L 3.858237,11.124752 Z m 17.1436416,1.655966 3.446595,2.303952 v -4.607903 z m -2.463947,-1.661299 4.7999,-3.213266 -10.76511,-7.1785168 v 6.4105328 z m 8.659819,-3.213266 v 9.74913 0.04 c 0,0.461324 -0.239995,0.867982 -0.602654,1.099977 l -0.0053,0.0027 -14.625028,9.750463 c -0.215996,0.145329 -0.481324,0.231994 -0.767984,0.231994 -0.286661,0 -0.551989,-0.08666 -0.773318,-0.234662 l 0.0053,0.0027 L 0.60630481,22.017858 C 0.2383125,21.783196 -0.0016825,21.376538 -0.0016825,20.915214 c 0,-0.01467 0,-0.028 0.001333305,-0.04267 v 0.0027 -9.749131 c 0,-0.012 0,-0.02666 0,-0.04134 0,-0.461324 0.239994995,-0.867982 0.602654095,-1.0999774 L 0.6076379,9.9820856 15.232667,0.23297936 C 15.448662,0.08764906 15.71399,9.8419e-4 16.00065,9.8419e-4 c 0.286662,0 0.55199,0.08666487 0.773318,0.23466178 l -0.0053,-0.002667 14.625028,9.74912963 c 0.367992,0.2346624 0.607987,0.6413204 0.607987,1.1026444 0,0.01467 0,0.028 -0.0013,0.04267 z"
     id="path2"
     style="fill:#f0f0f0;fill-opacity:0.75294118;stroke-width:1"
     inkscape:connector-curvature="0" />
</svg>
