<?xml version="1.0" encoding="UTF-8" standalone="no"?>
<!-- Generator: Adobe Illustrator 19.0.0, SVG Export Plug-In . SVG Version: 6.00 Build 0)  -->

<svg
   xmlns:dc="http://purl.org/dc/elements/1.1/"
   xmlns:cc="http://creativecommons.org/ns#"
   xmlns:rdf="http://www.w3.org/1999/02/22-rdf-syntax-ns#"
   xmlns:svg="http://www.w3.org/2000/svg"
   xmlns="http://www.w3.org/2000/svg"
   xmlns:sodipodi="http://sodipodi.sourceforge.net/DTD/sodipodi-0.dtd"
   xmlns:inkscape="http://www.inkscape.org/namespaces/inkscape"
   version="1.1"
   id="Layer_1"
   x="0px"
   y="0px"
   viewBox="0 0 32 32"
   xml:space="preserve"
   sodipodi:docname="flickr.svg"
   width="32"
   height="32"
   inkscape:version="0.92.4 (5da689c313, 2019-01-14)"><metadata
   id="metadata39"><rdf:RDF><cc:Work
       rdf:about=""><dc:format>image/svg+xml</dc:format><dc:type
         rdf:resource="http://purl.org/dc/dcmitype/StillImage" /><dc:title /></cc:Work></rdf:RDF></metadata><defs
   id="defs37" /><sodipodi:namedview
   pagecolor="#ffffff"
   bordercolor="#666666"
   borderopacity="1"
   objecttolerance="10"
   gridtolerance="10"
   guidetolerance="10"
   inkscape:pageopacity="0"
   inkscape:pageshadow="2"
   inkscape:window-width="1920"
   inkscape:window-height="1013"
   id="namedview35"
   showgrid="false"
   inkscape:snap-page="true"
   inkscape:showpageshadow="true"
   inkscape:zoom="5.8682092"
   inkscape:cx="-39.157116"
   inkscape:cy="27.629947"
   inkscape:window-x="-9"
   inkscape:window-y="-9"
   inkscape:window-maximized="1"
   inkscape:current-layer="Layer_1" />
<path
   style="clip-rule:evenodd;fill-rule:evenodd;stroke-width:1;fill:#f0f0f0;fill-opacity:0.75294119"
   d="M 0,-6.8965011e-7 V 32 H 32 V -6.8965011e-7 Z M 9.8882812,20.923077 c -2.7427162,0 -4.9652042,-2.204273 -4.9652042,-4.921882 0,-2.72 2.222488,-4.924342 4.9652042,-4.924342 2.7415218,0 4.9640088,2.204342 4.9640088,4.924342 0,2.717609 -2.222417,4.921882 -4.9640088,4.921882 z m 12.2234378,0 c -2.741521,0 -4.964009,-2.204343 -4.964009,-4.921882 0,-2.72 2.222488,-4.924342 4.964009,-4.924342 2.742787,0 4.965204,2.204342 4.965204,4.924342 0,2.717609 -2.222488,4.921882 -4.965204,4.921882 z"
   id="path2"
   inkscape:connector-curvature="0" />
<g
   id="g4"
   transform="translate(0,-423)">
</g>
<g
   id="g6"
   transform="translate(0,-423)">
</g>
<g
   id="g8"
   transform="translate(0,-423)">
</g>
<g
   id="g10"
   transform="translate(0,-423)">
</g>
<g
   id="g12"
   transform="translate(0,-423)">
</g>
<g
   id="g14"
   transform="translate(0,-423)">
</g>
<g
   id="g16"
   transform="translate(0,-423)">
</g>
<g
   id="g18"
   transform="translate(0,-423)">
</g>
<g
   id="g20"
   transform="translate(0,-423)">
</g>
<g
   id="g22"
   transform="translate(0,-423)">
</g>
<g
   id="g24"
   transform="translate(0,-423)">
</g>
<g
   id="g26"
   transform="translate(0,-423)">
</g>
<g
   id="g28"
   transform="translate(0,-423)">
</g>
<g
   id="g30"
   transform="translate(0,-423)">
</g>
<g
   id="g32"
   transform="translate(0,-423)">
</g>
</svg>