<?xml version="1.0" encoding="UTF-8" standalone="no"?>
<svg
   xmlns:dc="http://purl.org/dc/elements/1.1/"
   xmlns:cc="http://creativecommons.org/ns#"
   xmlns:rdf="http://www.w3.org/1999/02/22-rdf-syntax-ns#"
   xmlns:svg="http://www.w3.org/2000/svg"
   xmlns="http://www.w3.org/2000/svg"
   xmlns:sodipodi="http://sodipodi.sourceforge.net/DTD/sodipodi-0.dtd"
   xmlns:inkscape="http://www.inkscape.org/namespaces/inkscape"
   width="32"
   height="32"
   viewBox="0 0 32 32"
   class="bi bi-github"
   version="1.1"
   id="svg4"
   sodipodi:docname="git.svg"
   inkscape:version="0.92.4 (5da689c313, 2019-01-14)"
   style="fill:currentColor">
  <metadata
     id="metadata10">
    <rdf:RDF>
      <cc:Work
         rdf:about="">
        <dc:format>image/svg+xml</dc:format>
        <dc:type
           rdf:resource="http://purl.org/dc/dcmitype/StillImage" />
        <dc:title></dc:title>
      </cc:Work>
    </rdf:RDF>
  </metadata>
  <defs
     id="defs8" />
  <sodipodi:namedview
     pagecolor="#ffffff"
     bordercolor="#666666"
     borderopacity="1"
     objecttolerance="10"
     gridtolerance="10"
     guidetolerance="10"
     inkscape:pageopacity="0"
     inkscape:pageshadow="2"
     inkscape:window-width="1920"
     inkscape:window-height="1013"
     id="namedview6"
     showgrid="false"
     inkscape:zoom="14.75"
     inkscape:cx="-13.288136"
     inkscape:cy="8"
     inkscape:window-x="-9"
     inkscape:window-y="-9"
     inkscape:window-maximized="1"
     inkscape:current-layer="svg4" />
  <path
     d="m 16,0.36165558 c -8.858729,0 -16.0338985,7.17516952 -16.0338985,16.03389842 0,7.095 4.5897034,13.08767 10.9631775,15.212161 0.801696,0.140297 1.102331,-0.34072 1.102331,-0.76161 0,-0.380805 -0.02004,-1.643474 -0.02004,-2.986313 C 7.9830507,28.601359 6.9408473,26.877715 6.6201693,25.975808 6.439788,25.514834 5.6581354,24.091825 4.9766948,23.71102 4.4155083,23.410385 3.6138134,22.668817 4.9566524,22.648775 c 1.2626695,-0.02004 2.1645763,1.162457 2.4652119,1.643474 1.4430508,2.425127 3.7479237,1.743687 4.6698737,1.322797 0.140296,-1.042204 0.561185,-1.743687 1.022161,-2.144534 -3.5675432,-0.400848 -7.2954246,-1.783771 -7.2954246,-7.916737 0,-1.743687 0.6213136,-3.186738 1.6434746,-4.309111 C 7.30161,10.843817 6.7404236,9.2003421 7.622288,6.9956811 c 0,0 1.342839,-0.4208899 4.409323,1.6434745 1.282711,-0.3607627 2.645593,-0.541144 4.008473,-0.541144 1.362882,0 2.725763,0.1803813 4.008475,0.541144 3.066484,-2.0844067 4.409322,-1.6434745 4.409322,-1.6434745 0.881864,2.204661 0.320679,3.8481359 0.160339,4.2489829 1.022162,1.122373 1.643475,2.545382 1.643475,4.309111 0,6.153008 -3.747923,7.515889 -7.315466,7.916737 0.581229,0.501059 1.082287,1.463093 1.082287,2.966271 0,2.144534 -0.02004,3.868178 -0.02004,4.409322 0,0.42089 0.300636,0.921949 1.102331,0.76161 A 16.057949,16.057949 0 0 0 32.033898,16.395554 C 32.033898,7.5368251 24.858728,0.36165558 16,0.36165558 Z"
     id="path2"
     style="fill:#f0f0f0;fill-opacity:0.75294118;stroke-width:1"
     inkscape:connector-curvature="0" />
</svg>
