<?xml version="1.0" encoding="UTF-8" standalone="no"?>
<svg
   xmlns:dc="http://purl.org/dc/elements/1.1/"
   xmlns:cc="http://creativecommons.org/ns#"
   xmlns:rdf="http://www.w3.org/1999/02/22-rdf-syntax-ns#"
   xmlns:svg="http://www.w3.org/2000/svg"
   xmlns="http://www.w3.org/2000/svg"
   xmlns:sodipodi="http://sodipodi.sourceforge.net/DTD/sodipodi-0.dtd"
   xmlns:inkscape="http://www.inkscape.org/namespaces/inkscape"
   width="32"
   height="32"
   viewBox="0 0 32 32"
   version="1.1"
   id="svg4"
   sodipodi:docname="insta.svg"
   inkscape:version="0.92.4 (5da689c313, 2019-01-14)"
   style="fill:none">
  <metadata
     id="metadata10">
    <rdf:RDF>
      <cc:Work
         rdf:about="">
        <dc:format>image/svg+xml</dc:format>
        <dc:type
           rdf:resource="http://purl.org/dc/dcmitype/StillImage" />
        <dc:title></dc:title>
      </cc:Work>
    </rdf:RDF>
  </metadata>
  <defs
     id="defs8" />
  <sodipodi:namedview
     pagecolor="#ffffff"
     bordercolor="#666666"
     borderopacity="1"
     objecttolerance="10"
     gridtolerance="10"
     guidetolerance="10"
     inkscape:pageopacity="0"
     inkscape:pageshadow="2"
     inkscape:window-width="1920"
     inkscape:window-height="1013"
     id="namedview6"
     showgrid="false"
     inkscape:zoom="9.8333333"
     inkscape:cx="-19.932203"
     inkscape:cy="12"
     inkscape:window-x="-9"
     inkscape:window-y="-9"
     inkscape:window-maximized="1"
     inkscape:current-layer="svg4" />
  <path
     d="m 9.9136543,1.3258643 c 1.5746987,-0.072176 2.0766307,-0.088576 6.0863447,-0.088576 4.010492,0 4.511619,0.017219 6.085458,0.088576 1.572229,0.071358 2.64588,0.321505 3.584923,0.6864661 0.984941,0.3708259 1.877146,0.9518459 2.614611,1.7026372 0.750885,0.7373706 1.331999,1.6296557 1.702677,2.6146373 0.364907,0.9390695 0.614263,2.0126541 0.686466,3.5840508 0.0722,1.5746983 0.08858,2.0766303 0.08858,6.0863443 0,4.009687 -0.01718,4.511619 -0.08858,6.086398 -0.0714,1.571289 -0.321559,2.644941 -0.686466,3.583983 -0.377254,0.970313 -0.882542,1.794475 -1.702677,2.614611 -0.737331,0.750885 -1.62967,1.331999 -2.614611,1.702677 -0.939043,0.364908 -2.012694,0.614263 -3.583984,0.686466 -1.574778,0.0722 -2.076711,0.08858 -6.086397,0.08858 -4.009714,0 -4.511646,-0.01718 -6.0863447,-0.08858 C 8.3422575,30.602738 7.2686729,30.352577 6.3296034,29.987669 5.3593577,29.610415 4.5351152,29.105128 3.7149661,28.284992 2.9640406,27.547662 2.3829803,26.655323 2.0123289,25.670381 1.6473678,24.731339 1.398039,23.657687 1.3258628,22.086398 1.2536865,20.511619 1.2372865,20.010492 1.2372865,16 c 0,-4.010532 0.017219,-4.511646 0.088576,-6.0855123 C 1.3972203,8.342259 1.6473678,7.2686744 2.0123289,6.3296049 2.3831548,5.3446904 2.9641748,4.4524456 3.7149661,3.7149676 4.4523233,2.9640421 5.3446084,2.3829818 6.3296034,2.0123304 7.2686729,1.6473693 8.3422575,1.3980405 9.9136543,1.3258643 Z M 21.965745,3.9831524 c -1.556661,-0.070539 -2.024102,-0.08612 -5.965746,-0.08612 -3.941644,0 -4.409126,0.015581 -5.965774,0.08612 C 8.594861,4.0487659 7.8132559,4.2890626 7.2932729,4.4916473 6.6043509,4.7590134 6.112256,5.0788677 5.5955611,5.5955626 5.0796982,6.1122575 4.7590119,6.6043524 4.4916458,7.2932744 4.2890611,7.8132574 4.0487644,8.5948625 3.9831509,10.034227 3.9126119,11.590875 3.8970309,12.058356 3.8970309,16 c 0,3.941644 0.015581,4.409085 0.08612,5.965746 0.065613,1.439364 0.3059102,2.220983 0.5084949,2.741033 0.2364986,0.641238 0.6137261,1.221279 1.1039153,1.697712 0.4762987,0.490122 1.056433,0.867376 1.6977118,1.103848 0.519983,0.202652 1.3015881,0.442881 2.7409521,0.508508 1.556648,0.07059 2.023311,0.08616 5.965774,0.08616 3.942449,0 4.409085,-0.01557 5.965746,-0.08616 1.439364,-0.06563 2.220983,-0.305856 2.741033,-0.508508 0.688881,-0.267339 1.181017,-0.587153 1.697711,-1.103848 0.490123,-0.476299 0.867377,-1.056474 1.103849,-1.697712 0.202651,-0.52005 0.442881,-1.301669 0.508508,-2.741033 0.07059,-1.556661 0.08616,-2.024102 0.08616,-5.965746 0,-3.941644 -0.01557,-4.409125 -0.08616,-5.965773 C 27.951219,8.5948625 27.710989,7.8132574 27.508338,7.2932744 27.240998,6.6043524 26.921184,6.1122575 26.404489,5.5955626 25.887795,5.0796998 25.395659,4.7590134 24.706778,4.4916473 24.186728,4.2890626 23.405109,4.0487659 21.965745,3.9831524 Z M 14.115069,20.550807 c 0.597621,0.247611 1.238055,0.374973 1.88493,0.374973 1.3065,0 2.559317,-0.518976 3.48306,-1.442719 0.923878,-0.923744 1.442854,-2.176695 1.442854,-3.483061 0,-1.306366 -0.518976,-2.559317 -1.442854,-3.483087 -0.923743,-0.92377 -2.17656,-1.442747 -3.48306,-1.442747 -0.646875,0 -1.287309,0.127416 -1.88493,0.37496 -0.597756,0.247544 -1.140715,0.610371 -1.598117,1.067787 -0.457403,0.457402 -0.820244,1.000402 -1.067787,1.598023 -0.247544,0.597621 -0.374946,1.238189 -0.374946,1.885064 0,0.646875 0.127402,1.287443 0.374946,1.885064 0.247543,0.597621 0.610384,1.140621 1.067787,1.597997 0.457402,0.457375 1.000361,0.820269 1.598117,1.067746 z m -3.480578,-9.916368 c 1.423032,-1.423032 3.353082,-2.2224865 5.365508,-2.2224865 2.01256,0 3.942583,0.7994545 5.365574,2.2224865 1.422992,1.423031 2.22246,3.353135 2.22246,5.365561 0,2.012426 -0.799468,3.942449 -2.22246,5.365575 -1.422991,1.422991 -3.353014,2.222459 -5.365574,2.222459 -2.012426,0 -3.942476,-0.799468 -5.365508,-2.222459 C 9.2114592,19.942449 8.4120046,18.012426 8.4120046,16 c 0,-2.012426 0.7994546,-3.94253 2.2224864,-5.365561 z M 25.270579,9.5424943 C 25.6069,9.2061058 25.795863,8.7498844 25.795863,8.2741761 25.795863,7.7984544 25.6069,7.342233 25.270579,7.0058579 24.934123,6.6694828 24.477956,6.4805066 24.002194,6.4805066 c -0.475628,0 -0.93193,0.1889762 -1.268251,0.5253513 -0.336456,0.3363751 -0.525419,0.7925965 -0.525419,1.2683182 0,0.4757083 0.188963,0.9319297 0.525419,1.2683182 0.336321,0.3363754 0.792623,0.5253517 1.268251,0.5253517 0.475762,0 0.931929,-0.1889763 1.268385,-0.5253517 z"
     id="path2"
     style="clip-rule:evenodd;fill:#f0f0f0;fill-opacity:0.75294118;fill-rule:evenodd;stroke-width:0.99999994"
     inkscape:connector-curvature="0" />
</svg>
