<?xml version="1.0" encoding="UTF-8" standalone="no"?>
<!-- Generator: Adobe Illustrator 19.0.0, SVG Export Plug-In . SVG Version: 6.00 Build 0)  -->

<svg
   xmlns:dc="http://purl.org/dc/elements/1.1/"
   xmlns:cc="http://creativecommons.org/ns#"
   xmlns:rdf="http://www.w3.org/1999/02/22-rdf-syntax-ns#"
   xmlns:svg="http://www.w3.org/2000/svg"
   xmlns="http://www.w3.org/2000/svg"
   xmlns:sodipodi="http://sodipodi.sourceforge.net/DTD/sodipodi-0.dtd"
   xmlns:inkscape="http://www.inkscape.org/namespaces/inkscape"
   version="1.1"
   id="Layer_1"
   x="0px"
   y="0px"
   viewBox="0 0 512 512"
   style="enable-background:new 0 0 512 512;"
   xml:space="preserve"
   sodipodi:docname="mail.svg"
   inkscape:version="0.92.4 (5da689c313, 2019-01-14)"><metadata
   id="metadata43"><rdf:RDF><cc:Work
       rdf:about=""><dc:format>image/svg+xml</dc:format><dc:type
         rdf:resource="http://purl.org/dc/dcmitype/StillImage" /></cc:Work></rdf:RDF></metadata><defs
   id="defs41" /><sodipodi:namedview
   pagecolor="#ffffff"
   bordercolor="#666666"
   borderopacity="1"
   objecttolerance="10"
   gridtolerance="10"
   guidetolerance="10"
   inkscape:pageopacity="0"
   inkscape:pageshadow="2"
   inkscape:window-width="1920"
   inkscape:window-height="1013"
   id="namedview39"
   showgrid="false"
   inkscape:zoom="0.4609375"
   inkscape:cx="-425.22034"
   inkscape:cy="256"
   inkscape:window-x="-9"
   inkscape:window-y="-9"
   inkscape:window-maximized="1"
   inkscape:current-layer="Layer_1" />
<g
   id="g6"
   style="fill:#f0f0f0;fill-opacity:0.75294119">
	<g
   id="g4"
   style="fill:#f0f0f0;fill-opacity:0.75294119">
		<path
   style="fill:#f0f0f0;fill-opacity:0.75294119"
   d="M425.367,72.125H86.633C38.752,72.125,0,111.131,0,158.759v194.482    c0,47.839,38.98,86.633,86.633,86.633h338.734c47.741,0,86.633-38.888,86.633-86.633V158.759    C512,111.069,473.187,72.125,425.367,72.125z M425.367,110.411c9.804,0,18.928,2.942,26.556,7.976l-184.231,120.58    c-7.102,4.649-16.282,4.649-23.386,0l-184.23-120.58C76.732,107.394,58.236,110.411,425.367,110.411z M39.03,150.368    l126.776,82.975L38.286,350.222C38.286,142.169,37.967,156.414,39.03,150.368z M425.367,401.589H86.633    c-12.865,0-24.563-5.061-33.235-13.284l145.463-133.326c59.59,39.003,66.629,31.186,114.278,0l145.463,133.326    C449.931,396.528,438.232,401.589,425.367,401.589z M473.716,350.222l-127.52-116.879l126.776-82.975    C474.035,156.414,473.716,142.206,473.716,350.222z"
   id="path2" />
	</g>
</g>
<g
   id="g8">
</g>
<g
   id="g10">
</g>
<g
   id="g12">
</g>
<g
   id="g14">
</g>
<g
   id="g16">
</g>
<g
   id="g18">
</g>
<g
   id="g20">
</g>
<g
   id="g22">
</g>
<g
   id="g24">
</g>
<g
   id="g26">
</g>
<g
   id="g28">
</g>
<g
   id="g30">
</g>
<g
   id="g32">
</g>
<g
   id="g34">
</g>
<g
   id="g36">
</g>
</svg>