<?xml version="1.0" encoding="UTF-8" standalone="no"?>
<!-- Generator: Adobe Illustrator 19.0.0, SVG Export Plug-In . SVG Version: 6.00 Build 0)  -->

<svg
   xmlns:dc="http://purl.org/dc/elements/1.1/"
   xmlns:cc="http://creativecommons.org/ns#"
   xmlns:rdf="http://www.w3.org/1999/02/22-rdf-syntax-ns#"
   xmlns:svg="http://www.w3.org/2000/svg"
   xmlns="http://www.w3.org/2000/svg"
   xmlns:sodipodi="http://sodipodi.sourceforge.net/DTD/sodipodi-0.dtd"
   xmlns:inkscape="http://www.inkscape.org/namespaces/inkscape"
   version="1.1"
   id="Layer_1"
   x="0px"
   y="0px"
   viewBox="0 0 512 512"
   xml:space="preserve"
   sodipodi:docname="mail.svg"
   inkscape:version="0.92.4 (5da689c313, 2019-01-14)"
   width="32"
   height="32"><metadata
   id="metadata43"><rdf:RDF><cc:Work
       rdf:about=""><dc:format>image/svg+xml</dc:format><dc:type
         rdf:resource="http://purl.org/dc/dcmitype/StillImage" /><dc:title></dc:title></cc:Work></rdf:RDF></metadata><defs
   id="defs41" /><sodipodi:namedview
   pagecolor="#ffffff"
   bordercolor="#666666"
   borderopacity="1"
   objecttolerance="10"
   gridtolerance="10"
   guidetolerance="10"
   inkscape:pageopacity="0"
   inkscape:pageshadow="2"
   inkscape:window-width="1920"
   inkscape:window-height="1013"
   id="namedview39"
   showgrid="false"
   inkscape:zoom="7.375"
   inkscape:cx="28.577889"
   inkscape:cy="9.6468948"
   inkscape:window-x="-9"
   inkscape:window-y="-9"
   inkscape:window-maximized="1"
   inkscape:current-layer="Layer_1"
   fit-margin-top="0"
   fit-margin-left="0"
   fit-margin-right="0"
   fit-margin-bottom="0" />
<g
   id="g6"
   style="fill:#f0f0f0;fill-opacity:0.75294118"
   transform="translate(0,5e-4)">
	<g
   id="g4"
   style="fill:#f0f0f0;fill-opacity:0.75294118">
		<path
   style="fill:#f0f0f0;fill-opacity:0.75294118"
   d="M 425.367,72.125 H 86.633 C 38.752,72.125 0,111.131 0,158.759 v 194.482 c 0,47.839 38.98,86.633 86.633,86.633 h 338.734 c 47.741,0 86.633,-38.888 86.633,-86.633 V 158.759 c 0,-47.69 -38.813,-86.634 -86.633,-86.634 z m 0,38.286 c 9.804,0 18.928,2.942 26.556,7.976 l -184.231,120.58 c -7.102,4.649 -16.282,4.649 -23.386,0 L 60.076,118.387 c 16.656,-10.993 -1.84,-7.976 365.291,-7.976 z M 39.03,150.368 165.806,233.343 38.286,350.222 c 0,-208.053 -0.319,-193.808 0.744,-199.854 z M 425.367,401.589 H 86.633 c -12.865,0 -24.563,-5.061 -33.235,-13.284 L 198.861,254.979 c 59.59,39.003 66.629,31.186 114.278,0 l 145.463,133.326 c -8.671,8.223 -20.37,13.284 -33.235,13.284 z m 48.349,-51.367 -127.52,-116.879 126.776,-82.975 c 1.063,6.046 0.744,-8.162 0.744,199.854 z"
   id="path2"
   inkscape:connector-curvature="0" />
	</g>
</g>
<g
   id="g8"
   transform="translate(0,72.126007)">
</g>
<g
   id="g10"
   transform="translate(0,72.126007)">
</g>
<g
   id="g12"
   transform="translate(0,72.126007)">
</g>
<g
   id="g14"
   transform="translate(0,72.126007)">
</g>
<g
   id="g16"
   transform="translate(0,72.126007)">
</g>
<g
   id="g18"
   transform="translate(0,72.126007)">
</g>
<g
   id="g20"
   transform="translate(0,72.126007)">
</g>
<g
   id="g22"
   transform="translate(0,72.126007)">
</g>
<g
   id="g24"
   transform="translate(0,72.126007)">
</g>
<g
   id="g26"
   transform="translate(0,72.126007)">
</g>
<g
   id="g28"
   transform="translate(0,72.126007)">
</g>
<g
   id="g30"
   transform="translate(0,72.126007)">
</g>
<g
   id="g32"
   transform="translate(0,72.126007)">
</g>
<g
   id="g34"
   transform="translate(0,72.126007)">
</g>
<g
   id="g36"
   transform="translate(0,72.126007)">
</g>
</svg>