<?xml version="1.0" encoding="UTF-8" standalone="no"?>
<svg
   xmlns:dc="http://purl.org/dc/elements/1.1/"
   xmlns:cc="http://creativecommons.org/ns#"
   xmlns:rdf="http://www.w3.org/1999/02/22-rdf-syntax-ns#"
   xmlns:svg="http://www.w3.org/2000/svg"
   xmlns="http://www.w3.org/2000/svg"
   xmlns:sodipodi="http://sodipodi.sourceforge.net/DTD/sodipodi-0.dtd"
   xmlns:inkscape="http://www.inkscape.org/namespaces/inkscape"
   width="32"
   height="32"
   viewBox="0 0 32 32"
   data-name="Layer 1"
   version="1.1"
   id="svg4"
   sodipodi:docname="top.svg"
   inkscape:version="0.92.4 (5da689c313, 2019-01-14)">
  <metadata
     id="metadata10">
    <rdf:RDF>
      <cc:Work
         rdf:about="">
        <dc:format>image/svg+xml</dc:format>
        <dc:type
           rdf:resource="http://purl.org/dc/dcmitype/StillImage" />
        <dc:title></dc:title>
      </cc:Work>
    </rdf:RDF>
  </metadata>
  <defs
     id="defs8" />
  <sodipodi:namedview
     pagecolor="#ffffff"
     bordercolor="#666666"
     borderopacity="1"
     objecttolerance="10"
     gridtolerance="10"
     guidetolerance="10"
     inkscape:pageopacity="0"
     inkscape:pageshadow="2"
     inkscape:window-width="1920"
     inkscape:window-height="1013"
     id="namedview6"
     showgrid="false"
     inkscape:zoom="4.5384615"
     inkscape:cx="-43.186441"
     inkscape:cy="26"
     inkscape:window-x="-9"
     inkscape:window-y="-9"
     inkscape:window-maximized="1"
     inkscape:current-layer="svg4" />
  <path
     d="M 6.530876,6.8264238 A 1.1590115,1.1590115 0 0 1 5.3718645,5.6674123 V 3.2508732 A 1.1590115,1.1590115 0 0 1 6.530876,2.0918617 h 18.938248 a 1.1590115,1.1590115 0 0 1 1.159011,1.1590115 V 5.644232 a 1.1590115,1.1590115 0 0 1 -1.159011,1.1590115 z m 8.310113,23.0817142 a 1.2285522,1.2285522 0 0 1 -1.187987,-1.159012 v 0 -10.0834 a 0.75335749,0.75335749 0 0 0 -1.298093,-0.533145 v 0 l -2.7816275,2.717882 a 1.1590115,1.1590115 0 0 1 -1.657387,0 v 0 L 6.2353281,19.256822 a 1.0778807,1.0778807 0 0 1 0,-1.599436 v 0 L 15.171307,8.9648 a 1.1590115,1.1590115 0 0 1 1.657386,0 v 0 l 8.878029,8.692586 a 1.0778807,1.0778807 0 0 1 0,1.599436 v 0 l -1.593642,1.593641 a 1.1590115,1.1590115 0 0 1 -1.657386,0 v 0 l -2.781628,-2.717882 a 0.75335749,0.75335749 0 0 0 -1.298093,0.533145 v 0 10.0834 a 1.2691176,1.2691176 0 0 1 -1.216961,1.159012 z"
     id="path2"
     style="fill:#f0f0f0;fill-opacity:0.75294118;stroke-width:1"
     inkscape:connector-curvature="0" />
</svg>
