<?xml version="1.0" encoding="UTF-8" standalone="no"?>
<svg
   xmlns:dc="http://purl.org/dc/elements/1.1/"
   xmlns:cc="http://creativecommons.org/ns#"
   xmlns:rdf="http://www.w3.org/1999/02/22-rdf-syntax-ns#"
   xmlns:svg="http://www.w3.org/2000/svg"
   xmlns="http://www.w3.org/2000/svg"
   xmlns:sodipodi="http://sodipodi.sourceforge.net/DTD/sodipodi-0.dtd"
   xmlns:inkscape="http://www.inkscape.org/namespaces/inkscape"
   width="52px"
   height="52px"
   viewBox="0 0 52 52"
   data-name="Layer 1"
   version="1.1"
   id="svg4"
   sodipodi:docname="top.svg"
   inkscape:version="0.92.4 (5da689c313, 2019-01-14)">
  <metadata
     id="metadata10">
    <rdf:RDF>
      <cc:Work
         rdf:about="">
        <dc:format>image/svg+xml</dc:format>
        <dc:type
           rdf:resource="http://purl.org/dc/dcmitype/StillImage" />
      </cc:Work>
    </rdf:RDF>
  </metadata>
  <defs
     id="defs8" />
  <sodipodi:namedview
     pagecolor="#ffffff"
     bordercolor="#666666"
     borderopacity="1"
     objecttolerance="10"
     gridtolerance="10"
     guidetolerance="10"
     inkscape:pageopacity="0"
     inkscape:pageshadow="2"
     inkscape:window-width="1920"
     inkscape:window-height="1013"
     id="namedview6"
     showgrid="false"
     inkscape:zoom="4.5384615"
     inkscape:cx="-3.1949153"
     inkscape:cy="26"
     inkscape:window-x="-9"
     inkscape:window-y="-9"
     inkscape:window-maximized="1"
     inkscape:current-layer="svg4" />
  <path
     d="M9.66,10.17a2,2,0,0,1-2-2V4a2,2,0,0,1,2-2H42.34a2,2,0,0,1,2,2V8.13a2,2,0,0,1-2,2ZM24,50a2.12,2.12,0,0,1-2.05-2h0V30.6a1.3,1.3,0,0,0-2.24-.92h0l-4.8,4.69a2,2,0,0,1-2.86,0h0L9.15,31.62a1.86,1.86,0,0,1,0-2.76h0l15.42-15a2,2,0,0,1,2.86,0h0l15.32,15a1.86,1.86,0,0,1,0,2.76h0L40,34.37a2,2,0,0,1-2.86,0h0l-4.8-4.69a1.3,1.3,0,0,0-2.24.92h0V48A2.19,2.19,0,0,1,28,50H24Z"
     id="path2"
     style="fill:#f0f0f0;fill-opacity:0.75294119" />
</svg>
