<?xml version="1.0" encoding="UTF-8" standalone="no"?>
<svg
   xmlns:dc="http://purl.org/dc/elements/1.1/"
   xmlns:cc="http://creativecommons.org/ns#"
   xmlns:rdf="http://www.w3.org/1999/02/22-rdf-syntax-ns#"
   xmlns:svg="http://www.w3.org/2000/svg"
   xmlns="http://www.w3.org/2000/svg"
   xmlns:sodipodi="http://sodipodi.sourceforge.net/DTD/sodipodi-0.dtd"
   xmlns:inkscape="http://www.inkscape.org/namespaces/inkscape"
   width="32"
   height="32"
   viewBox="0 0 32 32"
   version="1.1"
   id="svg8"
   sodipodi:docname="navbig.svg"
   inkscape:version="0.92.4 (5da689c313, 2019-01-14)"
   style="fill:none">
  <metadata
     id="metadata14">
    <rdf:RDF>
      <cc:Work
         rdf:about="">
        <dc:format>image/svg+xml</dc:format>
        <dc:type
           rdf:resource="http://purl.org/dc/dcmitype/StillImage" />
        <dc:title></dc:title>
      </cc:Work>
    </rdf:RDF>
  </metadata>
  <defs
     id="defs12" />
  <sodipodi:namedview
     pagecolor="#ffffff"
     bordercolor="#666666"
     borderopacity="1"
     objecttolerance="10"
     gridtolerance="10"
     guidetolerance="10"
     inkscape:pageopacity="0"
     inkscape:pageshadow="2"
     inkscape:window-width="1920"
     inkscape:window-height="1013"
     id="namedview10"
     showgrid="false"
     showguides="false"
     inkscape:zoom="9.8333333"
     inkscape:cx="-19.932203"
     inkscape:cy="12"
     inkscape:window-x="-9"
     inkscape:window-y="-9"
     inkscape:window-maximized="1"
     inkscape:current-layer="svg8" />
  <path
     d="m 24.711864,6.9322036 c 0,-1.6849355 -1.365966,-3.0508474 -3.050847,-3.0508474 H 5.0508474 C 3.3659119,3.8813562 2,5.2472681 2,6.9322036 V 19.81356 c 0,1.684881 1.3659119,3.050847 3.0508474,3.050847 H 5.3898305 V 11.677966 L 5.3968,11.427905 C 5.5264407,9.1104545 7.446739,7.2711867 9.7966101,7.2711867 H 24.711864 Z"
     id="path2"
     style="fill:#ffdea2;fill-opacity:1;stroke-width:1"
     inkscape:connector-curvature="0" />
  <path
     d="m 9.4576271,8.6271189 c -1.497722,0 -2.7118644,1.2141424 -2.7118644,2.7118641 v 13.559322 c 0,1.497763 1.2141424,2.711865 2.7118644,2.711865 h 5.7385759 c -0.634305,-1.216949 -0.992813,-2.600543 -0.992813,-4.067797 0,-4.867661 3.945898,-8.813559 8.813559,-8.813559 2.368136,0 4.518102,0.933966 6.101695,2.453695 v -5.843526 c 0,-1.4977217 -1.214102,-2.7118641 -2.711864,-2.7118641 z"
     id="path4"
     style="fill:#ffdea2;fill-opacity:1;stroke-width:1"
     inkscape:connector-curvature="0" />
  <path
     d="m 23.016949,31 c 4.11878,0 7.457627,-3.338847 7.457627,-7.457627 0,-4.11878 -3.338847,-7.457627 -7.457627,-7.457627 -4.11878,0 -7.457627,3.338847 -7.457627,7.457627 0,4.11878 3.338847,7.457627 7.457627,7.457627 z m -4.745763,-7.457627 c 0,-0.374373 0.303594,-0.677966 0.677966,-0.677966 H 25.448 L 23.215458,20.632 c -0.264678,-0.264813 -0.264678,-0.694101 0,-0.958915 0.264813,-0.264678 0.694101,-0.264678 0.958915,0 l 3.38983,3.38983 c 0.264678,0.264814 0.264678,0.694102 0,0.958916 l -3.38983,3.38983 c -0.264814,0.264678 -0.694102,0.264678 -0.958915,0 -0.264678,-0.264813 -0.264678,-0.694101 0,-0.958915 L 25.448,24.220339 h -6.498848 c -0.374372,0 -0.677966,-0.303593 -0.677966,-0.677966 z"
     id="path6"
     style="fill:#ffdea2;fill-opacity:1;stroke-width:1"
     inkscape:connector-curvature="0" />
</svg>
